# xmcd
#
# Track frame offsets:
#	150
#	20110
#	38413
#	58173
#	75560
#	93290
#	109610
#	129448
#	152323
#	166215
#	178773
#	199716
#	217876
#	237518
#
# Disc length: 3603 seconds
#
# Revision: 1
# Processed by: cddbd v1.5.2PL0 Copyright (c) Steve Scherf et al.
# Submitted via: EZCDAudioConverter 7.0.6.1
#
DISCID=aa0e110e
DTITLE=Various Artist - Lovin' Mighty Fire
DYEAR=2017
DGENRE=
TTITLE0=Lily - By By Session Band
TTITLE1=Rie Nakahara - Sentimental Hotel
TTITLE2=Haruomi Hosono - Barato Yajuu
TTITLE3=Yasuko Agawa - Why Don't You Move In With Me
TTITLE4=Pink Lady - Jiken Ga Okitara Bell Ga Naru
TTITLE5=Yuko Asano - Summer Champion
TTITLE6=Junko Ohashi - Dancin'
TTITLE7=Masayoshi Takanaka - Rainbow Paradise
TTITLE8=Mari Natsuki - Uragiri
TTITLE9=Miyako Chaki - Maboroshi No Hito
TTITLE10=Kay Ishiguro - Banana
TTITLE11=Masaaki Hirao - Funky! "Miyo" Chan
TTITLE12=Ebonee Webb - Yashow Macashow
TTITLE13=Naoya Matsuoka and Minako Yoshida - Lovin' Mighty Fire
EXTD=
EXTT0=
EXTT1=
EXTT2=
EXTT3=
EXTT4=
EXTT5=
EXTT6=
EXTT7=
EXTT8=
EXTT9=
EXTT10=
EXTT11=
EXTT12=
EXTT13=
PLAYORDER=
